
<svg width="100px" height="100px" viewBox="252 148 100 100" version="1.1" xmlns="http://www.w3.org/2000/svg" xmlns:xlink="http://www.w3.org/1999/xlink">
    <!-- Generator: Sketch 41.2 (35397) - http://www.bohemiancoding.com/sketch -->
    <desc>Created with Sketch.</desc>
    <defs></defs>
    <g id="SlashRTC12" stroke="none" stroke-width="1" fill="none" fill-rule="evenodd" transform="translate(252.000000, 148.000000)">
        <g id="Group">
            <path d="M44.2307692,0.0635609063 C48.4294872,0.0953413595 52.6282051,0.127121813 56.8589744,0.190682719 C57.8205128,3.71831302 58.75,7.24594332 59.7435897,10.7735736 C42.6282051,12.2672549 27.8846154,27.140507 27.0512821,44.2383908 C26.6025641,49.2597024 28.2692308,54.0903313 30.1602564,58.698497 C17.5,44.2701712 21.474359,18.6233455 38.7820513,9.59769685 C42.7564103,8.13579601 42.7564103,3.36872803 44.2307692,0.0635609063 Z" id="Shape" fill="#F7941D"></path>
            <path d="M40.5128205,29.8100651 C56.0576923,16.6529575 83.6217949,21.9285127 91.5384615,41.0921259 C94.2628205,42.0137591 96.9871795,42.9353922 99.7115385,43.8570253 C99.7115385,48.0202647 99.6474359,52.1835041 99.5833333,56.3785239 C96.025641,57.3319375 92.4679487,58.2535706 88.9102564,59.2069842 C87.4038462,42.1408809 72.2115385,27.4583115 54.9038462,26.790922 C49.8717949,26.4095566 45.1282051,28.125701 40.5128205,29.8100651 Z" id="Shape" fill="#F7941D"></path>
            <path d="M0.16025641,42.5222463 C3.71794872,41.5688327 7.27564103,40.6471996 10.8653846,39.693786 C12.3397436,56.4420848 27.0192308,70.902191 43.974359,72.0780677 C49.0705128,72.586555 53.974359,70.9975323 58.7179487,69.4402901 C46.25,79.5464742 26.5064103,78.4341584 14.9038462,67.5016825 C11.9551282,64.800344 9.96794872,61.3044941 8.14102564,57.8086443 C5.41666667,56.8870111 2.72435897,55.9971585 0,55.0755253 C0.0641025641,50.848725 0.128205128,46.6854857 0.16025641,42.5222463 Z" id="Shape" fill="#F7941D"></path>
            <path d="M69.4551282,39.9162492 C82.9166667,55.2344276 77.7884615,82.8516414 58.3333333,90.6696328 C57.3717949,93.4027518 56.4102564,96.1040903 55.4807692,98.8372093 C51.2820513,98.8372093 47.0833333,98.7736484 42.8846154,98.7418679 C41.9230769,95.2142376 40.9615385,91.6548269 40,88.1271966 C57.0192308,86.6335153 71.6987179,71.9509459 72.6923077,54.980184 C73.2051282,49.7364092 71.4423077,44.6833171 69.4551282,39.9162492 Z" id="Shape" fill="#F7941D"></path>
            <path d="M10.7051282,18.3691019 C13.6858974,15.5088611 16.6987179,12.6168399 19.6474359,9.72481866 C22.8205128,11.5363045 26.025641,13.3477903 29.2307692,15.1592762 C18.0128205,28.5706274 18.4294872,50.0859942 30.8012821,62.6074927 C34.0705128,66.1033426 38.4935897,68.0419502 42.7884615,70.0123383 C26.4423077,68.518657 12.6923077,53.9632095 12.3076923,37.7233979 C12.0512821,33.6554999 13.7179487,29.8418455 14.0064103,25.8692889 C13.2371795,23.2315113 11.8589744,20.8161968 10.7051282,18.3691019 Z" id="Shape" fill="#6D6E71"></path>
            <path d="M73.4935897,14.3012039 C76.025641,13.0617662 78.5576923,11.8223286 81.0897436,10.5828909 C83.974359,13.538473 87.2435897,16.2398116 89.6794872,19.6085396 C88.2371795,22.8819263 86.2179487,25.8375084 84.4551282,28.9519928 C76.474359,22.7548045 66.025641,19.703881 55.9615385,21.3246841 C44.1987179,22.8183654 33.1089744,30.6045764 29.5192308,42.07732 C30.5448718,25.5832648 46.2179487,12.1083527 62.6282051,12.203694 C66.3141026,12.203694 69.9358974,13.252449 73.4935897,14.3012039 Z" id="Shape" fill="#6D6E71"></path>
            <path d="M57.0512821,28.9202124 C71.6666667,30.3185523 84.1987179,41.9819786 86.8910256,56.1878412 C88.1730769,61.71764 87.1474359,67.4063411 85.3525641,72.7136768 C86.5705128,75.3514544 87.8525641,77.9574516 89.0384615,80.5952292 C86.025641,83.4236895 83.0769231,86.2839303 80.1282051,89.1759515 C76.9230769,87.3644657 73.7179487,85.5529799 70.5128205,83.7414941 C81.8589744,70.2348015 81.3141026,48.4334106 68.6217949,35.975473 C65.4166667,32.6703058 61.1538462,30.7952591 57.0512821,28.9202124 Z" id="Shape" fill="#6D6E71"></path>
            <path d="M62.3717949,69.0907052 C66.1538462,65.8808794 68.3012821,61.368055 70.3846154,57.014133 C68.9423077,72.9679204 54.3269231,86.0932476 38.3653846,86.6970762 C34.2307692,86.9513198 30.1923077,85.8072235 26.3141026,84.5995663 C23.75,85.839004 21.1538462,87.0784416 18.5897436,88.3178793 C15.6730769,85.3622972 12.7564103,82.406715 9.80769231,79.4829133 C11.6025641,76.2730876 13.4294872,73.0950422 15.2884615,69.9169969 C28.5576923,80.8176924 49.6153846,80.6905706 62.3717949,69.0907052 Z" id="Shape" fill="#6D6E71"></path>
        </g>
    </g>
</svg>